<svg width="182" height="222" viewBox="0 0 182 222" fill="none" xmlns="http://www.w3.org/2000/svg">
<path d="M83.626 0C89.6656 4.3574e-06 95.6489 1.18811 101.23 3.5C106.811 5.8118 111.883 9.20103 116.153 13.4717L116.943 14.2812C120.843 18.3778 123.959 23.1621 126.126 28.3945C128.438 33.9759 129.626 39.9586 129.626 45.998V98.7002H104.562V46.0527L104.556 45.4844L104.538 45.002C104.423 42.5939 103.892 40.2202 102.967 37.9873C101.981 35.6077 100.564 33.4303 98.7891 31.5654L98.4287 31.1973C96.4843 29.2528 94.177 27.7091 91.6377 26.6572C89.2554 25.6705 86.7133 25.1337 84.1406 25.0703L83.626 25.0625C80.8782 25.0626 78.1562 25.6058 75.6152 26.6582C73.2347 27.6443 71.0583 29.0615 69.1934 30.8369L68.8242 31.1973C66.8796 33.1419 65.3368 35.4487 64.2852 37.9873C63.2987 40.3691 62.7607 42.9114 62.6973 45.4844L62.6904 46.0527V99.1641H37.627V45.998C37.6271 39.9585 38.8151 33.9759 41.127 28.3945C43.4387 22.8138 46.8277 17.7427 51.0986 13.4717L51.9092 12.6807C56.0058 8.78089 60.7899 5.66718 66.0215 3.5C71.6031 1.18806 77.5864 5.12948e-05 83.626 0Z" fill="#E9DEFF"/>
<g filter="url(#filter0_d_1453_4491)">
<foreignObject x="17.5008" y="50.6116" width="170.82" height="170.82"><div xmlns="http://www.w3.org/1999/xhtml" style="backdrop-filter:blur(10.05px);clip-path:url(#bgblur_0_1453_4491_clip_path);height:100%;width:100%"></div></foreignObject><rect data-figma-bg-blur-radius="20.0993" x="37.6001" y="70.7109" width="130.621" height="130.621" rx="24" fill="#9C75FF"/>
<foreignObject x="-3.55584" y="54.201" width="163.641" height="164.466"><div xmlns="http://www.w3.org/1999/xhtml" style="backdrop-filter:blur(8.25px);clip-path:url(#bgblur_1_1453_4491_clip_path);height:100%;width:100%"></div></foreignObject><g filter="url(#filter2_d_1453_4491)" data-figma-bg-blur-radius="16.5099">
<rect x="12.9541" y="70.7109" width="130.621" height="130.621" rx="24" fill="url(#paint0_linear_1453_4491)" fill-opacity="0.6" shape-rendering="crispEdges"/>
<rect x="13.9541" y="71.7109" width="128.621" height="128.621" rx="23" stroke="url(#paint1_linear_1453_4491)" stroke-width="2" shape-rendering="crispEdges"/>
</g>
<path d="M80.6476 104.32C89.8058 104.321 97.2296 111.745 97.2296 120.903C97.2295 126.966 93.9754 132.267 89.1192 135.159L102.557 158.433C104.767 162.26 102.005 167.045 97.5851 167.045H64.2013C59.7817 167.045 57.0198 162.26 59.2296 158.433L72.5431 135.372C67.4839 132.532 64.0646 127.118 64.0645 120.903C64.0645 111.745 71.4891 104.32 80.6476 104.32Z" fill="black"/>
</g>
<defs>
<filter id="filter0_d_1453_4491" x="7.62939e-06" y="65.1592" width="181.175" height="156.529" filterUnits="userSpaceOnUse" color-interpolation-filters="sRGB">
<feFlood flood-opacity="0" result="BackgroundImageFix"/>
<feColorMatrix in="SourceAlpha" type="matrix" values="0 0 0 0 0 0 0 0 0 0 0 0 0 0 0 0 0 0 127 0" result="hardAlpha"/>
<feOffset dy="7.40234"/>
<feGaussianBlur stdDeviation="6.47705"/>
<feComposite in2="hardAlpha" operator="out"/>
<feColorMatrix type="matrix" values="0 0 0 0 0.247059 0 0 0 0 0 0 0 0 0 0.52549 0 0 0 0.2 0"/>
<feBlend mode="normal" in2="BackgroundImageFix" result="effect1_dropShadow_1453_4491"/>
<feBlend mode="normal" in="SourceGraphic" in2="effect1_dropShadow_1453_4491" result="shape"/>
</filter>
<clipPath id="bgblur_0_1453_4491_clip_path" transform="translate(-17.5008 -50.6116)"><rect x="37.6001" y="70.7109" width="130.621" height="130.621" rx="24"/>
</clipPath><filter id="filter2_d_1453_4491" x="-3.55584" y="54.201" width="163.641" height="164.466" filterUnits="userSpaceOnUse" color-interpolation-filters="sRGB">
<feFlood flood-opacity="0" result="BackgroundImageFix"/>
<feColorMatrix in="SourceAlpha" type="matrix" values="0 0 0 0 0 0 0 0 0 0 0 0 0 0 0 0 0 0 127 0" result="hardAlpha"/>
<feOffset dy="6.60398"/>
<feGaussianBlur stdDeviation="5.36573"/>
<feComposite in2="hardAlpha" operator="out"/>
<feColorMatrix type="matrix" values="0 0 0 0 0 0 0 0 0 0 0 0 0 0 0 0 0 0 0.1 0"/>
<feBlend mode="normal" in2="BackgroundImageFix" result="effect1_dropShadow_1453_4491"/>
<feBlend mode="normal" in="SourceGraphic" in2="effect1_dropShadow_1453_4491" result="shape"/>
</filter>
<clipPath id="bgblur_1_1453_4491_clip_path" transform="translate(3.55584 -54.201)"><rect x="12.9541" y="70.7109" width="130.621" height="130.621" rx="24"/>
</clipPath><linearGradient id="paint0_linear_1453_4491" x1="156.693" y1="142.364" x2="19.6673" y2="65.9033" gradientUnits="userSpaceOnUse">
<stop stop-color="#9C75FF"/>
<stop offset="1" stop-color="#9C75FF" stop-opacity="0"/>
</linearGradient>
<linearGradient id="paint1_linear_1453_4491" x1="12.9541" y1="52.7096" x2="136.044" y2="230.292" gradientUnits="userSpaceOnUse">
<stop stop-color="white"/>
<stop offset="1" stop-color="white" stop-opacity="0"/>
</linearGradient>
</defs>
</svg>
